<svg xmlns="http://www.w3.org/2000/svg" shape-rendering="geometricPrecision" text-rendering="geometricPrecision" image-rendering="optimizeQuality" fill-rule="evenodd" clip-rule="evenodd" viewBox="0 0 512 456.079"><path fill="#F4F4F4" d="M253.647 83.481c130.392-219.054 509.908 65.493-.512 372.598-514.787-328.94-101.874-598.694.512-372.598z"/><path fill="#dcdcdc" d="M344.488 10.579c146.33-39.079 316.839 185.127-65.021 429.133C561.646 215.547 470.393 36.15 344.488 10.579zM121.413.645C170.08-4.2 221.438 18.567 250.749 77.574a201.544 201.544 0 013.537 11.587c10.541 34.29.093 49.643-12.872 50.552-18.137 1.271-20.216-14.851-24.967-27.643C192.689 48.096 158.774 12.621 116.43 1.862c1.653-.434 3.315-.84 4.983-1.217z"/><path fill="#fff" d="M130.558 35.501c-42.657-4.246-87.652 23.898-99.173 66.067-7.868 25.593-.07 37.052 9.607 37.73 13.537.949 15.088-11.084 18.635-20.632 17.732-47.748 43.045-74.226 74.65-82.256a107.173 107.173 0 00-3.719-.909z"/></svg>